# xmcd CD database file
#
# Track frame offsets:
#	150
#	21089
#	44915
#	69818
#	88283
#	109645
#	136553
#	160495
#	186428
#	199200
#	220778
#
# Disc length: 3273 seconds
#
# Revision: 1
# Processed by: cddbd v1.5.2PL0 Copyright (c) Steve Scherf et al.
# Submitted via: CDex 1.70beta2
#
DISCID=9d0cc70b
DTITLE=Patty Clayton - A Matter Of Time
DYEAR=2000
DGENRE=Cowboy
TTITLE0=A Matter Of Time
TTITLE1=Montan'a Yesterday
TTITLE2=Her Pride
TTITLE3=Prairie In The Sky
TTITLE4=Mother's Day
TTITLE5=One Horse Stands Alone
TTITLE6=Yellow Moon Keep Shining
TTITLE7=An El Niño Story
TTITLE8=Gallop To Kansas
TTITLE9=Pale Horse, Pale Rider
TTITLE10=Across The Wide Missouri - Great Pioneer
EXTD=YEAR: 2000
EXTT0=
EXTT1=
EXTT2=
EXTT3=
EXTT4=
EXTT5=
EXTT6=
EXTT7=
EXTT8=
EXTT9=
EXTT10=
PLAYORDER=
